<svg xmlns="http://www.w3.org/2000/svg" xmlns:xlink="http://www.w3.org/1999/xlink" width="200" zoomAndPan="magnify" viewBox="0 0 150 56.249996" height="75" preserveAspectRatio="xMidYMid meet" version="1.0"><defs><g/><clipPath id="2c6313780b"><path d="M 7.738281 18.402344 L 29 18.402344 L 29 40.605469 L 7.738281 40.605469 Z M 7.738281 18.402344 " clip-rule="nonzero"/></clipPath></defs><g clip-path="url(#2c6313780b)"><path fill="#f9943b" d="M 28.386719 21.078125 C 28.078125 19.917969 26.628906 18.875 25.046875 18.734375 C 21.414062 18.410156 13.15625 18.476562 11.359375 18.765625 C 10.386719 18.921875 8.4375 19.347656 8.167969 22.65625 C 7.964844 25.144531 7.738281 31.128906 8.167969 34.605469 C 8.429688 36.746094 9.734375 37.410156 10.539062 37.566406 C 11.550781 37.765625 12.589844 37.773438 13.613281 37.839844 C 13.699219 39.304688 13.175781 40.238281 12.734375 40.597656 C 14.363281 40.371094 15.558594 38.902344 15.855469 37.972656 C 18.015625 38.078125 23.269531 38.0625 25.605469 37.613281 C 28.214844 37.109375 28.53125 35.601562 28.648438 34.488281 C 28.898438 32.152344 29.210938 24.15625 28.386719 21.078125 Z M 28.386719 21.078125 " fill-opacity="1" fill-rule="nonzero"/></g><path fill="#2d323f" d="M 26.175781 27.742188 C 26.15625 27.550781 26.097656 27.371094 26 27.203125 C 25.886719 27.023438 25.726562 26.910156 25.523438 26.859375 C 25.503906 26.851562 25.476562 26.84375 25.449219 26.839844 C 25.386719 26.164062 25.296875 25.488281 25.113281 24.832031 C 24.964844 24.3125 24.761719 23.765625 24.34375 23.402344 C 23.894531 23.011719 23.304688 22.890625 22.738281 22.789062 C 22.035156 22.660156 21.324219 22.570312 20.609375 22.519531 C 19.945312 22.464844 19.273438 22.433594 18.605469 22.429688 C 18.597656 22.230469 18.589844 22.027344 18.582031 21.828125 C 18.574219 21.628906 18.503906 21.34375 18.34375 21.378906 C 18.210938 21.464844 18.160156 21.910156 18.152344 22.429688 C 17.492188 22.433594 16.828125 22.460938 16.164062 22.515625 C 15.546875 22.5625 14.933594 22.644531 14.324219 22.761719 C 13.730469 22.882812 13.128906 23.0625 12.660156 23.464844 C 12.320312 23.757812 12.09375 24.171875 11.9375 24.589844 C 11.710938 25.203125 11.625 25.867188 11.578125 26.515625 C 11.570312 26.59375 11.566406 26.671875 11.5625 26.75 C 11.089844 26.863281 10.859375 27.089844 10.714844 27.398438 C 10.613281 27.632812 10.550781 27.878906 10.53125 28.132812 C 10.496094 28.800781 10.511719 29.554688 10.714844 30.175781 C 10.867188 30.636719 11.21875 30.964844 11.777344 31.085938 C 11.8125 31.726562 11.910156 32.355469 12.058594 32.980469 C 12.164062 33.367188 12.324219 33.707031 12.632812 33.972656 C 13.003906 34.292969 13.484375 34.441406 13.957031 34.539062 C 14.402344 34.628906 14.851562 34.683594 15.304688 34.707031 C 15.308594 34.769531 15.320312 34.832031 15.34375 34.894531 C 15.378906 34.976562 15.441406 35.023438 15.53125 35.042969 C 15.683594 35.070312 16.199219 35.132812 16.523438 35.027344 C 16.566406 35.019531 16.605469 34.996094 16.640625 34.96875 C 16.675781 34.929688 16.703125 34.886719 16.714844 34.835938 C 16.742188 34.714844 16.753906 34.59375 16.746094 34.46875 C 16.734375 34.363281 16.714844 34.285156 16.628906 34.230469 C 16.566406 34.195312 16.496094 34.179688 16.425781 34.183594 C 16.183594 34.167969 15.945312 34.160156 15.703125 34.160156 C 15.636719 34.15625 15.566406 34.164062 15.5 34.183594 C 15.386719 34.238281 15.320312 34.332031 15.308594 34.460938 C 14.941406 34.445312 14.578125 34.40625 14.21875 34.34375 C 13.773438 34.261719 13.292969 34.152344 12.917969 33.886719 C 12.59375 33.65625 12.417969 33.34375 12.3125 32.964844 C 12.214844 32.582031 12.144531 32.191406 12.101562 31.796875 C 12.074219 31.578125 12.050781 31.355469 12.03125 31.128906 C 12.160156 31.144531 12.292969 31.148438 12.421875 31.144531 L 12.828125 26.6875 C 12.503906 26.664062 12.183594 26.671875 11.863281 26.703125 C 11.886719 26.148438 11.96875 25.597656 12.105469 25.058594 C 12.21875 24.644531 12.390625 24.21875 12.65625 23.902344 C 13.019531 23.472656 13.5625 23.25 14.097656 23.121094 C 14.648438 22.996094 15.203125 22.90625 15.765625 22.855469 C 16.558594 22.777344 17.355469 22.738281 18.152344 22.734375 C 18.152344 23.109375 18.175781 23.492188 18.199219 23.789062 L 18.652344 23.761719 C 18.640625 23.417969 18.628906 23.074219 18.617188 22.734375 C 19.074219 22.738281 19.527344 22.753906 19.984375 22.78125 C 20.691406 22.820312 21.394531 22.882812 22.09375 22.988281 C 22.417969 23.035156 22.742188 23.09375 23.066406 23.160156 C 23.335938 23.210938 23.59375 23.296875 23.839844 23.421875 C 24.269531 23.65625 24.527344 24.054688 24.691406 24.507812 C 24.933594 25.171875 25.042969 25.875 25.121094 26.574219 C 25.128906 26.644531 25.132812 26.726562 25.140625 26.804688 C 24.855469 26.773438 24.570312 26.777344 24.285156 26.816406 L 23.902344 31.21875 C 24.339844 31.207031 24.773438 31.15625 25.203125 31.074219 C 25.550781 31 25.8125 30.664062 25.953125 30.308594 C 26.082031 29.929688 26.160156 29.542969 26.191406 29.144531 C 26.226562 28.675781 26.21875 28.210938 26.175781 27.742188 Z M 26.175781 27.742188 " fill-opacity="1" fill-rule="nonzero"/><path fill="#e9f4ef" d="M 24.28125 31.757812 C 24.101562 32.519531 23.726562 32.910156 23.074219 33.128906 C 21.066406 33.796875 16.113281 33.648438 14.335938 33.304688 C 13.644531 33.171875 12.902344 32.792969 12.679688 32.136719 C 12.226562 31.144531 12.183594 28.324219 12.265625 27.085938 C 12.375 25.511719 12.585938 24.625 13.605469 24.195312 C 14.253906 23.925781 15.5625 23.707031 16.199219 23.65625 C 18.078125 23.507812 19.953125 23.539062 21.824219 23.746094 C 22.589844 23.828125 23.421875 23.976562 23.941406 24.546875 C 24.441406 25.101562 24.523438 25.90625 24.546875 26.652344 C 24.609375 28.46875 24.554688 30.582031 24.28125 31.757812 Z M 17.652344 21.675781 C 18.039062 21.6875 18.667969 21.6875 19.105469 21.679688 C 19.234375 21.679688 19.367188 21.667969 19.496094 21.648438 C 19.675781 21.605469 19.742188 21.425781 19.757812 21.238281 C 19.773438 21.097656 19.757812 20.855469 19.613281 20.796875 C 19.269531 20.6875 18.164062 20.65625 17.476562 20.796875 C 17.359375 20.820312 17.25 20.867188 17.152344 20.9375 C 17.03125 21.027344 17.023438 21.226562 17.054688 21.371094 C 17.117188 21.625 17.375 21.660156 17.652344 21.671875 Z M 17.652344 21.675781 " fill-opacity="1" fill-rule="nonzero"/><path fill="#2d323f" d="M 19.585938 29.945312 C 19.535156 30.234375 19.402344 30.472656 19.179688 30.660156 C 18.957031 30.851562 18.699219 30.945312 18.410156 30.949219 C 18.117188 30.949219 17.859375 30.859375 17.632812 30.671875 C 17.410156 30.488281 17.269531 30.25 17.21875 29.964844 C 17.183594 29.785156 17.460938 29.707031 17.492188 29.890625 C 17.574219 30.320312 17.964844 30.667969 18.410156 30.664062 C 18.851562 30.660156 19.234375 30.300781 19.308594 29.871094 C 19.339844 29.6875 19.617188 29.765625 19.585938 29.945312 Z M 15.894531 26.800781 C 15.746094 26.761719 15.601562 26.757812 15.453125 26.789062 C 15.058594 26.910156 14.898438 27.296875 14.921875 27.707031 C 14.925781 27.839844 14.976562 27.949219 15.070312 28.046875 C 15.332031 28.320312 15.824219 28.398438 16.117188 28.15625 C 16.28125 28.019531 16.375 27.84375 16.40625 27.632812 C 16.4375 27.425781 16.394531 27.230469 16.277344 27.050781 C 16.179688 26.921875 16.054688 26.835938 15.894531 26.800781 Z M 21.746094 27.058594 C 21.648438 26.921875 21.515625 26.835938 21.355469 26.800781 C 21.207031 26.765625 21.0625 26.761719 20.914062 26.789062 C 20.519531 26.910156 20.359375 27.296875 20.382812 27.707031 C 20.386719 27.839844 20.4375 27.953125 20.53125 28.046875 C 20.792969 28.324219 21.285156 28.402344 21.578125 28.15625 C 21.742188 28.019531 21.839844 27.847656 21.871094 27.636719 C 21.902344 27.429688 21.859375 27.234375 21.746094 27.058594 Z M 21.746094 27.058594 " fill-opacity="1" fill-rule="nonzero"/><path fill="#f4ab9a" d="M 22.738281 30.167969 C 22.652344 30.25 22.550781 30.300781 22.433594 30.328125 C 22.277344 30.378906 22.113281 30.402344 21.945312 30.398438 C 21.828125 30.398438 21.726562 30.367188 21.632812 30.296875 C 21.613281 30.269531 21.601562 30.242188 21.597656 30.210938 C 21.585938 30.011719 21.667969 29.867188 21.84375 29.769531 C 22.003906 29.683594 22.175781 29.644531 22.355469 29.648438 C 22.539062 29.640625 22.757812 29.679688 22.824219 29.847656 C 22.863281 29.972656 22.835938 30.078125 22.738281 30.167969 Z M 14.960938 29.769531 C 14.800781 29.6875 14.628906 29.644531 14.449219 29.648438 C 14.269531 29.640625 14.046875 29.679688 13.980469 29.847656 C 13.941406 29.972656 13.96875 30.078125 14.0625 30.167969 C 14.148438 30.25 14.25 30.300781 14.367188 30.328125 C 14.527344 30.378906 14.691406 30.402344 14.855469 30.398438 C 14.972656 30.398438 15.078125 30.367188 15.167969 30.296875 C 15.191406 30.269531 15.203125 30.242188 15.207031 30.210938 C 15.21875 30.011719 15.136719 29.867188 14.960938 29.769531 Z M 14.960938 29.769531 " fill-opacity="1" fill-rule="nonzero"/><g fill="#000000" fill-opacity="1"><g transform="translate(30.946497, 31.727063)"><g><path d="M 0.25 -4.484375 C 0.25 -5.773438 0.6875 -6.867188 1.5625 -7.765625 C 2.445312 -8.660156 3.515625 -9.109375 4.765625 -9.109375 C 6.015625 -9.109375 7.078125 -8.660156 7.953125 -7.765625 C 8.828125 -6.878906 9.265625 -5.785156 9.265625 -4.484375 C 9.265625 -3.171875 8.832031 -2.066406 7.96875 -1.171875 C 7.113281 -0.285156 6.046875 0.15625 4.765625 0.15625 C 3.453125 0.15625 2.367188 -0.285156 1.515625 -1.171875 C 0.671875 -2.054688 0.25 -3.160156 0.25 -4.484375 Z M 2.453125 -4.484375 C 2.453125 -4.015625 2.523438 -3.582031 2.671875 -3.1875 C 2.816406 -2.800781 3.066406 -2.472656 3.421875 -2.203125 C 3.785156 -1.941406 4.234375 -1.8125 4.765625 -1.8125 C 5.523438 -1.8125 6.097656 -2.070312 6.484375 -2.59375 C 6.867188 -3.113281 7.0625 -3.742188 7.0625 -4.484375 C 7.0625 -5.210938 6.863281 -5.835938 6.46875 -6.359375 C 6.070312 -6.878906 5.503906 -7.140625 4.765625 -7.140625 C 4.023438 -7.140625 3.453125 -6.878906 3.046875 -6.359375 C 2.648438 -5.835938 2.453125 -5.210938 2.453125 -4.484375 Z M 2.453125 -4.484375 "/></g></g></g><g fill="#000000" fill-opacity="1"><g transform="translate(40.459834, 31.727063)"><g><path d="M 6.375 -4.859375 C 6.894531 -4.296875 7.15625 -3.601562 7.15625 -2.78125 C 7.15625 -1.957031 6.894531 -1.257812 6.375 -0.6875 C 5.851562 -0.125 5.191406 0.15625 4.390625 0.15625 C 3.648438 0.15625 3.039062 -0.0703125 2.5625 -0.53125 L 2.5625 2.8125 L 0.65625 2.8125 L 0.65625 -5.5625 L 2.546875 -5.5625 L 2.546875 -4.9375 L 2.5625 -4.9375 C 3.039062 -5.457031 3.648438 -5.71875 4.390625 -5.71875 C 5.191406 -5.71875 5.851562 -5.429688 6.375 -4.859375 Z M 4.75 -1.84375 C 5 -2.09375 5.125 -2.40625 5.125 -2.78125 C 5.125 -3.164062 5.003906 -3.476562 4.765625 -3.71875 C 4.523438 -3.96875 4.207031 -4.09375 3.8125 -4.09375 C 3.4375 -4.09375 3.128906 -3.96875 2.890625 -3.71875 C 2.648438 -3.46875 2.53125 -3.15625 2.53125 -2.78125 C 2.53125 -2.40625 2.65625 -2.09375 2.90625 -1.84375 C 3.15625 -1.59375 3.457031 -1.46875 3.8125 -1.46875 C 4.1875 -1.46875 4.5 -1.59375 4.75 -1.84375 Z M 4.75 -1.84375 "/></g></g></g><g fill="#000000" fill-opacity="1"><g transform="translate(47.868739, 31.727063)"><g><path d="M 6.28125 -2.515625 L 2.25 -2.515625 C 2.25 -2.128906 2.375 -1.835938 2.625 -1.640625 C 2.875 -1.453125 3.148438 -1.359375 3.453125 -1.359375 C 3.765625 -1.359375 4.007812 -1.398438 4.1875 -1.484375 C 4.363281 -1.566406 4.566406 -1.734375 4.796875 -1.984375 L 6.1875 -1.296875 C 5.613281 -0.328125 4.65625 0.15625 3.3125 0.15625 C 2.46875 0.15625 1.742188 -0.128906 1.140625 -0.703125 C 0.546875 -1.273438 0.25 -1.960938 0.25 -2.765625 C 0.25 -3.578125 0.546875 -4.269531 1.140625 -4.84375 C 1.742188 -5.425781 2.46875 -5.71875 3.3125 -5.71875 C 4.1875 -5.71875 4.898438 -5.460938 5.453125 -4.953125 C 6.015625 -4.453125 6.296875 -3.726562 6.296875 -2.78125 C 6.296875 -2.644531 6.289062 -2.554688 6.28125 -2.515625 Z M 2.296875 -3.578125 L 4.40625 -3.578125 C 4.363281 -3.867188 4.25 -4.09375 4.0625 -4.25 C 3.882812 -4.40625 3.648438 -4.484375 3.359375 -4.484375 C 3.046875 -4.484375 2.796875 -4.398438 2.609375 -4.234375 C 2.421875 -4.066406 2.316406 -3.847656 2.296875 -3.578125 Z M 2.296875 -3.578125 "/></g></g></g><g fill="#000000" fill-opacity="1"><g transform="translate(54.409838, 31.727063)"><g><path d="M 0.65625 0 L 0.65625 -5.5625 L 2.5625 -5.5625 L 2.5625 -4.984375 L 2.59375 -4.984375 C 3.09375 -5.472656 3.625 -5.71875 4.1875 -5.71875 C 4.457031 -5.71875 4.726562 -5.679688 5 -5.609375 C 5.269531 -5.546875 5.53125 -5.4375 5.78125 -5.28125 C 6.03125 -5.125 6.234375 -4.90625 6.390625 -4.625 C 6.546875 -4.351562 6.625 -4.035156 6.625 -3.671875 L 6.625 0 L 4.703125 0 L 4.703125 -3.140625 C 4.703125 -3.429688 4.609375 -3.6875 4.421875 -3.90625 C 4.242188 -4.125 4.003906 -4.234375 3.703125 -4.234375 C 3.421875 -4.234375 3.160156 -4.117188 2.921875 -3.890625 C 2.679688 -3.671875 2.5625 -3.421875 2.5625 -3.140625 L 2.5625 0 Z M 0.65625 0 "/></g></g></g><g fill="#000000" fill-opacity="1"><g transform="translate(61.580099, 31.727063)"><g><path d="M 5.1875 -8.953125 L 8.8125 0 L 6.609375 0 L 5.953125 -1.796875 L 2.546875 -1.796875 L 1.890625 0 L -0.296875 0 L 3.3125 -8.953125 Z M 5.265625 -3.578125 L 4.265625 -6.1875 L 4.234375 -6.1875 L 3.25 -3.578125 Z M 5.265625 -3.578125 "/></g></g></g><g fill="#000000" fill-opacity="1"><g transform="translate(70.084609, 31.727063)"><g><path d="M 2.6875 -8.953125 L 2.6875 0 L 0.65625 0 L 0.65625 -8.953125 Z M 2.6875 -8.953125 "/></g></g></g><g fill="#000000" fill-opacity="1"><g transform="translate(73.42567, 31.727063)"><g/></g></g><g fill="#000000" fill-opacity="1"><g transform="translate(76.387066, 31.727063)"><g><path d="M 3.953125 -9.109375 C 4.429688 -9.109375 4.898438 -9.035156 5.359375 -8.890625 C 5.828125 -8.753906 6.171875 -8.617188 6.390625 -8.484375 L 6.71875 -8.265625 L 5.90625 -6.640625 C 5.832031 -6.679688 5.738281 -6.734375 5.625 -6.796875 C 5.507812 -6.867188 5.289062 -6.960938 4.96875 -7.078125 C 4.65625 -7.191406 4.363281 -7.25 4.09375 -7.25 C 3.75 -7.25 3.484375 -7.175781 3.296875 -7.03125 C 3.117188 -6.894531 3.03125 -6.703125 3.03125 -6.453125 C 3.03125 -6.328125 3.070312 -6.210938 3.15625 -6.109375 C 3.238281 -6.003906 3.382812 -5.890625 3.59375 -5.765625 C 3.8125 -5.648438 4 -5.554688 4.15625 -5.484375 C 4.3125 -5.410156 4.554688 -5.300781 4.890625 -5.15625 C 5.472656 -4.914062 5.96875 -4.582031 6.375 -4.15625 C 6.78125 -3.738281 6.984375 -3.257812 6.984375 -2.71875 C 6.984375 -2.207031 6.890625 -1.757812 6.703125 -1.375 C 6.523438 -0.988281 6.273438 -0.6875 5.953125 -0.46875 C 5.628906 -0.257812 5.269531 -0.101562 4.875 0 C 4.488281 0.101562 4.066406 0.15625 3.609375 0.15625 C 3.222656 0.15625 2.835938 0.113281 2.453125 0.03125 C 2.078125 -0.0390625 1.765625 -0.132812 1.515625 -0.25 C 1.265625 -0.375 1.035156 -0.492188 0.828125 -0.609375 C 0.628906 -0.722656 0.484375 -0.820312 0.390625 -0.90625 L 0.25 -1.015625 L 1.265625 -2.734375 C 1.359375 -2.660156 1.476562 -2.566406 1.625 -2.453125 C 1.78125 -2.335938 2.050781 -2.1875 2.4375 -2 C 2.820312 -1.8125 3.160156 -1.71875 3.453125 -1.71875 C 4.316406 -1.71875 4.75 -2.015625 4.75 -2.609375 C 4.75 -2.722656 4.71875 -2.832031 4.65625 -2.9375 C 4.59375 -3.039062 4.484375 -3.144531 4.328125 -3.25 C 4.171875 -3.363281 4.03125 -3.445312 3.90625 -3.5 C 3.789062 -3.5625 3.597656 -3.65625 3.328125 -3.78125 C 3.054688 -3.914062 2.859375 -4.015625 2.734375 -4.078125 C 2.191406 -4.347656 1.769531 -4.679688 1.46875 -5.078125 C 1.175781 -5.484375 1.03125 -5.914062 1.03125 -6.375 C 1.03125 -7.175781 1.328125 -7.832031 1.921875 -8.34375 C 2.515625 -8.851562 3.191406 -9.109375 3.953125 -9.109375 Z M 3.953125 -9.109375 "/></g></g></g><g fill="#000000" fill-opacity="1"><g transform="translate(83.676654, 31.727063)"><g><path d="M 2.46875 -5.5625 L 2.46875 -2.921875 C 2.46875 -2.367188 2.546875 -1.976562 2.703125 -1.75 C 2.867188 -1.519531 3.148438 -1.40625 3.546875 -1.40625 C 3.953125 -1.40625 4.238281 -1.519531 4.40625 -1.75 C 4.570312 -1.976562 4.65625 -2.367188 4.65625 -2.921875 L 4.65625 -5.5625 L 6.578125 -5.5625 L 6.578125 -2.453125 C 6.578125 -1.523438 6.332031 -0.859375 5.84375 -0.453125 C 5.363281 -0.046875 4.597656 0.15625 3.546875 0.15625 C 2.503906 0.15625 1.742188 -0.046875 1.265625 -0.453125 C 0.785156 -0.859375 0.546875 -1.523438 0.546875 -2.453125 L 0.546875 -5.5625 Z M 2.46875 -5.5625 "/></g></g></g><g fill="#000000" fill-opacity="1"><g transform="translate(90.792673, 31.727063)"><g><path d="M 0.65625 0 L 0.65625 -5.5625 L 2.5625 -5.5625 L 2.5625 -4.984375 L 2.59375 -4.984375 C 3.09375 -5.472656 3.625 -5.71875 4.1875 -5.71875 C 4.59375 -5.71875 4.972656 -5.632812 5.328125 -5.46875 C 5.679688 -5.3125 5.945312 -5.054688 6.125 -4.703125 C 6.6875 -5.378906 7.300781 -5.71875 7.96875 -5.71875 C 8.5625 -5.71875 9.070312 -5.550781 9.5 -5.21875 C 9.925781 -4.894531 10.140625 -4.378906 10.140625 -3.671875 L 10.140625 0 L 8.21875 0 L 8.21875 -3.140625 C 8.21875 -3.441406 8.132812 -3.691406 7.96875 -3.890625 C 7.8125 -4.085938 7.570312 -4.1875 7.25 -4.1875 C 6.96875 -4.1875 6.75 -4.097656 6.59375 -3.921875 C 6.445312 -3.753906 6.367188 -3.550781 6.359375 -3.3125 L 6.359375 0 L 4.4375 0 L 4.4375 -3.140625 C 4.4375 -3.441406 4.351562 -3.691406 4.1875 -3.890625 C 4.03125 -4.085938 3.785156 -4.1875 3.453125 -4.1875 C 3.160156 -4.1875 2.9375 -4.09375 2.78125 -3.90625 C 2.632812 -3.71875 2.5625 -3.5 2.5625 -3.25 L 2.5625 0 Z M 0.65625 0 "/></g></g></g><g fill="#000000" fill-opacity="1"><g transform="translate(101.477553, 31.727063)"><g><path d="M 0.65625 0 L 0.65625 -5.5625 L 2.5625 -5.5625 L 2.5625 -4.984375 L 2.59375 -4.984375 C 3.09375 -5.472656 3.625 -5.71875 4.1875 -5.71875 C 4.59375 -5.71875 4.972656 -5.632812 5.328125 -5.46875 C 5.679688 -5.3125 5.945312 -5.054688 6.125 -4.703125 C 6.6875 -5.378906 7.300781 -5.71875 7.96875 -5.71875 C 8.5625 -5.71875 9.070312 -5.550781 9.5 -5.21875 C 9.925781 -4.894531 10.140625 -4.378906 10.140625 -3.671875 L 10.140625 0 L 8.21875 0 L 8.21875 -3.140625 C 8.21875 -3.441406 8.132812 -3.691406 7.96875 -3.890625 C 7.8125 -4.085938 7.570312 -4.1875 7.25 -4.1875 C 6.96875 -4.1875 6.75 -4.097656 6.59375 -3.921875 C 6.445312 -3.753906 6.367188 -3.550781 6.359375 -3.3125 L 6.359375 0 L 4.4375 0 L 4.4375 -3.140625 C 4.4375 -3.441406 4.351562 -3.691406 4.1875 -3.890625 C 4.03125 -4.085938 3.785156 -4.1875 3.453125 -4.1875 C 3.160156 -4.1875 2.9375 -4.09375 2.78125 -3.90625 C 2.632812 -3.71875 2.5625 -3.5 2.5625 -3.25 L 2.5625 0 Z M 0.65625 0 "/></g></g></g><g fill="#000000" fill-opacity="1"><g transform="translate(112.162434, 31.727063)"><g><path d="M 1.03125 -0.6875 C 0.507812 -1.257812 0.25 -1.957031 0.25 -2.78125 C 0.25 -3.601562 0.507812 -4.296875 1.03125 -4.859375 C 1.550781 -5.429688 2.210938 -5.71875 3.015625 -5.71875 C 3.753906 -5.71875 4.363281 -5.488281 4.84375 -5.03125 L 4.84375 -5.5625 L 6.75 -5.5625 L 6.75 0 L 4.859375 0 L 4.859375 -0.625 L 4.84375 -0.625 C 4.363281 -0.101562 3.753906 0.15625 3.015625 0.15625 C 2.210938 0.15625 1.550781 -0.125 1.03125 -0.6875 Z M 2.65625 -3.71875 C 2.40625 -3.46875 2.28125 -3.148438 2.28125 -2.765625 C 2.28125 -2.390625 2.398438 -2.078125 2.640625 -1.828125 C 2.878906 -1.585938 3.195312 -1.46875 3.59375 -1.46875 C 3.96875 -1.46875 4.273438 -1.59375 4.515625 -1.84375 C 4.753906 -2.09375 4.875 -2.40625 4.875 -2.78125 C 4.875 -3.15625 4.75 -3.46875 4.5 -3.71875 C 4.25 -3.96875 3.945312 -4.09375 3.59375 -4.09375 C 3.21875 -4.09375 2.90625 -3.96875 2.65625 -3.71875 Z M 2.65625 -3.71875 "/></g></g></g><g fill="#000000" fill-opacity="1"><g transform="translate(119.571338, 31.727063)"><g><path d="M 0.65625 0 L 0.65625 -5.5625 L 2.5625 -5.5625 L 2.5625 -4.765625 L 2.59375 -4.765625 C 2.601562 -4.785156 2.625 -4.816406 2.65625 -4.859375 C 2.695312 -4.910156 2.769531 -4.988281 2.875 -5.09375 C 2.976562 -5.207031 3.09375 -5.304688 3.21875 -5.390625 C 3.34375 -5.472656 3.5 -5.546875 3.6875 -5.609375 C 3.882812 -5.679688 4.085938 -5.71875 4.296875 -5.71875 C 4.503906 -5.71875 4.707031 -5.6875 4.90625 -5.625 C 5.113281 -5.570312 5.265625 -5.519531 5.359375 -5.46875 L 5.515625 -5.375 L 4.703125 -3.75 C 4.460938 -3.957031 4.128906 -4.0625 3.703125 -4.0625 C 3.472656 -4.0625 3.273438 -4.007812 3.109375 -3.90625 C 2.941406 -3.800781 2.820312 -3.675781 2.75 -3.53125 C 2.6875 -3.382812 2.640625 -3.257812 2.609375 -3.15625 C 2.578125 -3.0625 2.5625 -2.984375 2.5625 -2.921875 L 2.5625 0 Z M 0.65625 0 "/></g></g></g><g fill="#000000" fill-opacity="1"><g transform="translate(124.973442, 31.727063)"><g><path d="M 0.828125 -8.65625 C 1.054688 -8.882812 1.328125 -9 1.640625 -9 C 1.953125 -9 2.21875 -8.882812 2.4375 -8.65625 C 2.664062 -8.4375 2.78125 -8.171875 2.78125 -7.859375 C 2.78125 -7.546875 2.664062 -7.273438 2.4375 -7.046875 C 2.21875 -6.828125 1.953125 -6.71875 1.640625 -6.71875 C 1.328125 -6.71875 1.054688 -6.828125 0.828125 -7.046875 C 0.609375 -7.273438 0.5 -7.546875 0.5 -7.859375 C 0.5 -8.171875 0.609375 -8.4375 0.828125 -8.65625 Z M 0.65625 -5.5625 L 0.65625 0 L 2.5625 0 L 2.5625 -5.5625 Z M 0.65625 -5.5625 "/></g></g></g><g fill="#000000" fill-opacity="1"><g transform="translate(128.249418, 31.727063)"><g><path d="M 6.03125 -5.5625 L 3.28125 -1.46875 L 5.8125 -1.46875 L 5.8125 0 L 0.046875 0 L 2.8125 -4.09375 L 0.515625 -4.09375 L 0.515625 -5.5625 Z M 6.03125 -5.5625 "/></g></g></g><g fill="#000000" fill-opacity="1"><g transform="translate(134.334915, 31.727063)"><g><path d="M 6.28125 -2.515625 L 2.25 -2.515625 C 2.25 -2.128906 2.375 -1.835938 2.625 -1.640625 C 2.875 -1.453125 3.148438 -1.359375 3.453125 -1.359375 C 3.765625 -1.359375 4.007812 -1.398438 4.1875 -1.484375 C 4.363281 -1.566406 4.566406 -1.734375 4.796875 -1.984375 L 6.1875 -1.296875 C 5.613281 -0.328125 4.65625 0.15625 3.3125 0.15625 C 2.46875 0.15625 1.742188 -0.128906 1.140625 -0.703125 C 0.546875 -1.273438 0.25 -1.960938 0.25 -2.765625 C 0.25 -3.578125 0.546875 -4.269531 1.140625 -4.84375 C 1.742188 -5.425781 2.46875 -5.71875 3.3125 -5.71875 C 4.1875 -5.71875 4.898438 -5.460938 5.453125 -4.953125 C 6.015625 -4.453125 6.296875 -3.726562 6.296875 -2.78125 C 6.296875 -2.644531 6.289062 -2.554688 6.28125 -2.515625 Z M 2.296875 -3.578125 L 4.40625 -3.578125 C 4.363281 -3.867188 4.25 -4.09375 4.0625 -4.25 C 3.882812 -4.40625 3.648438 -4.484375 3.359375 -4.484375 C 3.046875 -4.484375 2.796875 -4.398438 2.609375 -4.234375 C 2.421875 -4.066406 2.316406 -3.847656 2.296875 -3.578125 Z M 2.296875 -3.578125 "/></g></g></g></svg>